<svg width="640" height="640" viewBox="0 0 640 640" fill="none" xmlns="http://www.w3.org/2000/svg">
  <defs>
    <radialGradient id="bg2" cx="0" cy="0" r="1" gradientUnits="userSpaceOnUse" gradientTransform="translate(320 320) rotate(90) scale(300)">
      <stop stop-color="#1F2F68" stop-opacity="0.45"/>
      <stop offset="1" stop-color="#0C1226" stop-opacity="0"/>
    </radialGradient>
    <linearGradient id="metal" x1="160" y1="130" x2="470" y2="470" gradientUnits="userSpaceOnUse">
      <stop stop-color="#BFD7FF"/>
      <stop offset="0.5" stop-color="#7399E8"/>
      <stop offset="1" stop-color="#2D468A"/>
    </linearGradient>
    <linearGradient id="dark" x1="160" y1="220" x2="430" y2="520" gradientUnits="userSpaceOnUse">
      <stop stop-color="#25325F"/>
      <stop offset="1" stop-color="#11182F"/>
    </linearGradient>
    <linearGradient id="accent" x1="280" y1="260" x2="460" y2="360" gradientUnits="userSpaceOnUse">
      <stop stop-color="#70E0FF"/>
      <stop offset="1" stop-color="#3D66FF"/>
    </linearGradient>
    <filter id="drop" x="0" y="0" width="640" height="640" filterUnits="userSpaceOnUse" color-interpolation-filters="sRGB">
      <feDropShadow dx="0" dy="20" stdDeviation="14" flood-color="#050A1D" flood-opacity="0.5"/>
    </filter>
  </defs>

  <circle cx="320" cy="320" r="300" fill="url(#bg2)"/>

  <g filter="url(#drop)">
    <rect x="144" y="488" width="344" height="58" rx="24" fill="url(#dark)"/>
    <rect x="208" y="416" width="188" height="78" rx="18" fill="url(#metal)"/>

    <path d="M264 196C264 158.445 294.445 128 332 128H358C366.837 128 374 135.163 374 144V176C374 184.837 366.837 192 358 192H336C321.641 192 310 203.641 310 218V254H264V196Z" fill="url(#metal)"/>

    <rect x="288" y="230" width="170" height="54" rx="20" transform="rotate(36 288 230)" fill="url(#dark)"/>
    <rect x="346" y="266" width="126" height="34" rx="14" transform="rotate(36 346 266)" fill="url(#accent)"/>

    <circle cx="310" cy="358" r="48" fill="url(#metal)"/>
    <circle cx="310" cy="358" r="20" fill="#223A7A"/>

    <rect x="332" y="320" width="130" height="22" rx="11" fill="url(#accent)"/>
    <rect x="378" y="344" width="80" height="12" rx="6" fill="#8BC8FF" fill-opacity="0.7"/>

    <ellipse cx="290" cy="146" rx="28" ry="12" fill="#FFFFFF" fill-opacity="0.25"/>
  </g>
</svg>
